<?xml version="1.0" ?>
<!-- Uploaded to: SVG Repo, www.svgrepo.com, Generator: SVG Repo Mixer Tools -->
<svg width="800px" height="800px" viewBox="0 0 960 960" version="1.1" xml:space="preserve" xmlns="http://www.w3.org/2000/svg" xmlns:xlink="http://www.w3.org/1999/xlink">
<style type="text/css">
	.st0{display:none;}
	.st1{display:inline;opacity:0.93;}
	.st2{display:inline;}
	.st3{fill:none;stroke:#000000;stroke-width:15;stroke-linecap:round;stroke-linejoin:round;stroke-miterlimit:10;}
	.st4{display:inline;fill:none;stroke:#000000;stroke-width:15;stroke-linecap:round;stroke-linejoin:round;stroke-miterlimit:10;}
	.st5{fill:#222222;}
	.st6{fill:#DDEDE7;}
	.st7{fill:#1A1D3F;}
	.st8{fill:#ED644E;}
	.st9{fill:#E9B44D;}
	.st10{fill:#3DC5A1;}
	.st11{fill:#494EDF;}
</style>
<g class="st0" id="guide"/>
<g class="st0" id="sketch"/>
<g class="st0" id="stroke">
<g class="st2">
<path class="st3" d="M281.6,718.6c-15,25.2-12.9,59.1,3.9,83.2c16.7,24.1,46.8,37.8,76.1,36.2c27.9-1.4,55.1-16.6,69.7-40.5    c14.6-23.8,15.3-55.9,0.6-79.6C402.6,670.8,310,670.8,281.6,718.6z"/>
<path class="st3" d="M579.9,725.3c-14,35.3,0,79.1,31,101c31,21.9,75.8,21,106.8-0.8c28.3-20,40.7-57.6,31.8-91.1    C729.7,660.3,607.9,654.5,579.9,725.3z"/>
<path class="st3" d="M329,747.8c-4.5,11.8-1.2,26.3,8.1,34.9c9.3,8.6,24,10.8,35.4,5.3c11.4-5.5,18.9-18.3,18.1-30.9    c-0.5-7.9-4.2-15.7-10.3-20.7C363.5,722.5,337.2,726.6,329,747.8z"/>
<path class="st3" d="M643.7,727c-9.5,6.7-14.9,18.5-14.3,30.1c0.5,9.4,4.9,18.6,12,24.8c7.1,6.2,16.9,9.2,26.3,8    c13.7-1.8,25.6-13.1,28.1-26.7C701.2,734.7,668.8,709.3,643.7,727z"/>
<path class="st3" d="M574.6,758c-44,0.4-88.1,0.7-132.1,1.1"/>
<path class="st3" d="M271.5,761.1c-35.8,0.6-71.5,1.3-106.8,2.2c-8.3,0.2-15.4-5.8-16.7-13.9c-5.4-35.2-10-92.6,19.8-139.8    c34.3-54.3,80.8-80.4,154.1-80.9c101.9-1.5,268-3.3,369.9-4.8c90.8,0,116,18.2,148.5,54.8c32.1,36,38.8,101.8,34.1,159.4    c-0.7,8.7-7.8,15.4-16.5,15.6c-25.1,0.6-75.9,1.8-105.5,2.2"/>
<path class="st3" d="M830.4,568.4c-10.8,4.4-20.5,12.8-23.6,24c-3.6,12.9,2.3,27.2,12.6,35.9c10.2,8.6,24,12.2,37.4,12.4    c4.1,0.1,8.2-0.2,12.3-0.6"/>
<path class="st3" d="M528.2,577.3c8.7-0.4,17.4-0.9,26.1-1.3"/>
<path class="st3" d="M360.2,580.6c10.1-0.7,20.2-1.4,30.4-2.1"/>
<path class="st3" d="M155.9,632.9c7.3,1.4,14.1,4.7,18.7,10.5c6.9,8.7,7.3,20.8,7.3,32c0,8.3,0,16.6,0.1,24.9    c0,6.9,0,14.2-3.2,20.4c-4.1,8-12.8,12.8-21.7,14.3c-3.7,0.7-7.4,0.8-11.2,0.7"/>
<path class="st3" d="M306.7,529.2c-2.2-26-2.3-52.1,0.2-78.1c2.6-26,12.1-52.1,27.8-73c9.2-12.1,21-21.7,33.7-30.1    c75.9-49.6,236.2-40.1,287.6,15.3c17.5,18.8,25.1,41.5,29.8,66.9c5.5,29.7,7,63.4,5.7,93.5"/>
</g>
<path class="st4" d="M492.9,315.9c1.5,70.2,1.5,140.3,2.5,210.5"/>
<path class="st4" d="M145.3,735.3c-24.5,2.5-42.2-5.2-51.8-23.8c-9.6-18.6-9.4-43.5-9-64.4c2-97,3.9-189.1,5.9-286.1   c0.5-26.9,1.2-54.5,11.5-79.3c17.8-42.9,52.3-66.7,107.6-78.8c40.6-8.9,198.5-15,264.3-12.4"/>
<path class="st4" d="M585.4,130.1c-25.6,1.4-47.8,1.1-73.7,2.6c-10.5,0.6-22.2,1.8-29.3,9.5c-6.7,7.3-8.2,19.2-8.3,29.2   c-0.2,15.6-0.4,28.2-0.6,43.8c-0.1,8,1.1,16.8,6.5,22.6c5.8,6.2,15.4,8.7,24,8.6c28.2,0,56.4-0.1,84.6-0.1"/>
<path class="st4" d="M622,258.8c-11.4,0.5-21.7,0-33,0.5c-1.3-46.9-2.5-93.8-3.8-140.7c10.1-0.6,22.9-0.4,33-0.9   C621.6,174.3,622,194.9,622,258.8z"/>
<path class="st4" d="M619.7,145c20.8-0.4,38.8-0.7,58.8-1.1c5.9-0.1,10.8,4.5,11,10.4c0,0.3,0,0.5,0,0.8c0.2,6-4.5,11-10.5,11.2   c-19.4,0.6-37.8,0.7-58.3,1.2"/>
<path class="st4" d="M621.7,203.9c20.3-0.1,36.7-0.4,56-0.4c5.9,0,10.7,4.8,10.8,10.7c0,0.3,0,0.5,0,0.8c0.1,6-4.7,10.9-10.7,11   c-19,0.3-35.9,0.3-56,0.5"/>
</g>
<g id="outline">
<path class="st5" d="M385.1,730.6c-10.5-8.7-24.5-11.9-37.5-8.5c-11.9,3.1-21.2,11.5-25.6,23c-5.6,14.7-1.5,32.4,10.1,43.1   c7.3,6.7,17.2,10.3,27,10.3c5.7,0,11.5-1.2,16.7-3.7c14.2-6.8,23.4-22.5,22.3-38.2C397.5,746.4,392.7,736.9,385.1,730.6z    M369.4,781.3c-8.7,4.1-20.1,2.4-27.1-4.1c-7.1-6.5-9.7-17.7-6.2-26.7c2.7-7.1,8.2-12,15.4-13.9c8.3-2.2,17.3-0.1,24.1,5.5   c4.4,3.6,7.2,9.4,7.6,15.5C383.8,767.2,378,777.2,369.4,781.3z M683.4,720.2c-14.1-9-30.6-8.8-44,0.7v0   c-11.4,8-18.2,22.4-17.4,36.6c0.6,11.6,5.9,22.6,14.6,30.1c7.5,6.5,17.4,10.1,27.2,10.1c1.7,0,3.3-0.1,5-0.3   c16.9-2.2,31.5-15.9,34.6-32.7C706.4,747.7,698.4,729.8,683.4,720.2z M688.5,761.9c-1.9,10.4-11.2,19.2-21.7,20.6   c-7.2,0.9-14.8-1.4-20.4-6.3c-5.5-4.8-9.1-12.1-9.5-19.5c-0.5-9.2,3.9-18.4,11.1-23.5c11.9-8.4,23-3,27.2-0.3   C683.6,738.2,690.9,749.2,688.5,761.9z M520.7,577.7c-0.2-4.1,3-7.7,7.1-7.9l26.1-1.3c4.1-0.2,7.7,3,7.9,7.1s-3,7.7-7.1,7.9   l-26.1,1.3c-0.1,0-0.3,0-0.4,0C524.2,584.8,520.9,581.7,520.7,577.7z M352.7,581.1c-0.3-4.1,2.8-7.7,7-8l30.4-2.1   c4.1-0.3,7.7,2.8,8,7c0.3,4.1-2.8,7.7-7,8l-30.4,2.1c-0.2,0-0.3,0-0.5,0C356.3,588.1,353,585.1,352.7,581.1z M136.8,743.2   c0.9,0,1.8,0,2.7,0c0.3,2.4,0.7,4.9,1.1,7.4c1.8,11.7,11.9,20.3,23.7,20.3c0.2,0,0.4,0,0.6,0c31.5-0.8,64.3-1.5,100-2.1   c1.8,13.2,6.7,26.1,14.5,37.3c17,24.4,47.1,39.6,77.8,39.6c1.6,0,3.2,0,4.8-0.1c31.1-1.6,60.1-18.5,75.7-44   c6.5-10.7,10.4-22.7,11.8-35c22.1-0.2,44.2-0.4,66.4-0.6c17.3-0.1,34.6-0.3,51.9-0.4c0.7,5.9,1.9,11.7,3.7,17.5   c6.3,20.2,18.8,37.8,35.2,49.4c16.3,11.5,36.4,17.3,56.7,17.3c20.8,0,41.7-6.1,58.8-18.1c22-15.5,35.5-41.2,37.5-68.3   c29.7-0.5,73.6-1.5,98.4-2.1c12.5-0.3,22.8-10,23.8-22.5c1.7-21,3.2-60.9-5.3-99.2c0-0.1,0-0.1,0-0.2c-0.1-0.7-0.2-1.3-0.4-1.9   c-5.5-23.6-14.8-46.5-30.2-63.8c-17.5-19.6-32.8-33.6-55.1-43c-22.1-9.3-50.5-13.7-91.3-14.2c0.8-31-1.4-61.8-6.1-87.4   c-3.9-21.2-11-48.4-31.7-70.6c-25.5-27.5-77.8-46-139.7-49.4c-9.8-0.5-19.5-0.7-29.1-0.5c0,0-0.1,0-0.1,0c0,0-0.1,0-0.1,0   c-50.8,1.2-97.3,13.2-128.2,33.4c-15.6,10.2-26.9,20.3-35.6,31.8c-16.1,21.4-26.6,48.7-29.3,76.7c-2.3,23.2-2.5,46.8-0.8,71.9   c-61.8,5.4-104.8,31.7-137.3,83.3c-20.4,32.4-28.2,72.7-23.6,122.6c-18.1,0.3-30.4-6.3-37.6-20.2c-9-17.4-8.5-42.5-8.2-60.8   c1-51,2-100.6,3.1-150.3c0.9-44.9,1.9-89.8,2.8-135.8c0.5-25.9,1.1-52.7,11-76.6c16.4-39.5,48-62.5,102.3-74.3   c37.5-8.2,185.3-14.4,255.1-12.5c-0.1,5.6-0.2,11.2-0.3,17.3c-0.2,12.4,2.6,21.5,8.5,27.8c6.6,7,17.3,11,29.4,11c0,0,0,0,0.1,0   c25.8,0,51.5-0.1,77.3-0.1l0.2,5.7c0.1,2,0.9,3.9,2.4,5.3c1.4,1.3,3.2,2,5.1,2c0.1,0,0.2,0,0.4,0c5.5-0.3,10.7-0.3,16.2-0.2   c5.4,0,11,0,16.9-0.3c4-0.2,7.1-3.5,7.1-7.5c0-9.1,0-17.3,0-24.9c5.8-0.1,11.3-0.1,16.8-0.1c10.7-0.1,20.9-0.2,31.8-0.3   c10.1-0.2,18.2-8.5,18.1-18.6l0-0.7c-0.1-10-8.3-18.1-18.3-18.1c-10.7,0-20.4,0.1-30.6,0.2c-5.8,0.1-11.8,0.1-18.1,0.2   c-0.1-7.3-0.3-14.4-0.6-21.5c6.4-0.1,12.6-0.2,18.7-0.3c10.9-0.2,21.2-0.3,32.1-0.7c4.9-0.2,9.5-2.2,12.8-5.8   c3.3-3.6,5.1-8.3,4.9-13.2l0-0.8c-0.4-9.9-8.7-17.9-18.7-17.6c-8.3,0.2-16.2,0.3-24.2,0.5c-9,0.2-17.9,0.3-27.4,0.5   c-0.3-6.2-0.7-12.9-1.2-20.2c-0.2-4.1-3.8-7.3-7.9-7c-4.9,0.3-10.6,0.4-16.2,0.5c-5.7,0.1-11.6,0.2-16.8,0.5   c-4,0.2-7.2,3.6-7.1,7.7l0.1,4.1c-9.6,0.4-19,0.7-28,0.9c-12.2,0.3-24.9,0.6-38.4,1.4c-12.5,0.7-25.5,2.3-34.4,12   c-6.7,7.3-10.1,18.5-10.3,34.1c-0.1,4-0.1,7.8-0.2,11.4c-71.5-2-219.2,4.3-258.5,12.8c-29.3,6.4-52.4,15.9-70.7,29.1   c-19,13.7-32.9,31.4-42.3,54.2c-11,26.5-11.6,56-12.1,82c-0.9,46.1-1.9,91-2.8,135.8C79,546.4,78,596,77,647   c-0.4,19.9-0.9,47.2,9.8,68C93.7,728.2,107.9,743.2,136.8,743.2z M424.8,793.7c-13.1,21.4-37.4,35.5-63.6,36.9   c-27.3,1.4-54.6-11.6-69.5-33c-15.3-22-16.8-52.9-3.6-75.1c11.7-19.6,37.6-32,67.7-32.3c30.7-0.3,57.4,11.9,69.7,31.7   C438.4,742.9,438.2,771.7,424.8,793.7z M713.4,819.3c-28.8,20.3-70.1,20.7-98.2,0.8c-28.4-20.1-40.8-60.5-28.4-92.1   c8.4-21.3,32.9-45.2,74.7-45.2c2.1,0,4.3,0.1,6.6,0.2c28.1,1.6,64.4,16.6,74.2,53.3c1.7,6.4,2.5,12.9,2.6,19.4c0,0.1,0,0.2,0,0.2   c0,0.1,0,0.1,0,0.2C744.9,781.1,733.3,805.3,713.4,819.3z M828.9,577.4c1.9,2,3.7,4.1,5.7,6.2c12,13.5,19.9,31,25,49.5   c-0.9,0-1.9,0-2.8,0c-13.2-0.2-24.8-4-32.7-10.6c-8.6-7.3-12.8-18.8-10.2-28.1C815.9,587.7,821.3,581.6,828.9,577.4z M521.1,323.9   c58.2,3.2,106.6,19.9,129.5,44.7c14.3,15.4,22.6,34.3,28,63.2c4.6,24.8,6.6,54.7,5.9,84.8c-50.1,0.7-114.9,1.5-177.8,2.3   c-1.3,0-2.5,0-3.8,0c-0.3-25.5-0.6-51.2-0.8-76.2c-0.3-39.1-0.7-79.4-1.5-119.3C507.3,323.3,514.2,323.5,521.1,323.9z M314.4,451.9   c2.5-25.4,11.9-49.9,26.4-69.2c7.6-10.1,17.7-19.1,31.8-28.3c27.2-17.8,67.9-28.6,113-30.7c0.8,39.8,1.2,80,1.5,119.1   c0.2,25,0.4,50.7,0.8,76.2c-59.9,0.7-120,1.5-166.1,2.2c-2.7,0-5.4,0.1-8.1,0.2C312,497,312.2,474.2,314.4,451.9z M174.1,613.6   c16.8-26.6,36.3-45.6,59.6-58c24-12.8,52.8-19.1,88.2-19.4c50.9-0.8,119.1-1.6,184.9-2.4c65.9-0.8,134-1.6,184.9-2.4   c42.8,0,71.6,4,93.1,13.1c12.9,5.4,23.1,12.6,33.2,21.9c-9.3,6-15.9,14.4-18.5,23.9c-4.2,15,1.8,32.5,14.9,43.6   c13.5,11.4,30.3,14,42.1,14.2c0.5,0,1,0,1.5,0c1.6,0,3.3,0,5-0.1c6.7,34.6,5.3,70.3,3.8,89.4c-0.4,4.9-4.4,8.6-9.2,8.7   c-24.7,0.6-68.5,1.6-98.1,2.1c-0.5-5.3-1.4-10.6-2.7-15.8c-9.8-36.6-44.2-61.9-87.8-64.4c-20-1.2-40.2,2.9-56.7,11.5   c-18.4,9.6-32.1,24.5-39.4,42.9c-3.5,8.8-5.4,18.3-5.8,28c-17.1,0.1-34.3,0.3-51.4,0.4c-22,0.2-43.9,0.4-65.8,0.6   c-0.8-13.3-4.7-26.3-11.6-37.5c-15-24.3-46.7-39.2-82.6-38.8c-35.3,0.3-66.1,15.5-80.5,39.6c-7,11.8-10.7,25.3-11.2,39   c-35.5,0.6-68.1,1.3-99.6,2.1c-4.5,0.1-8.4-3.1-9.1-7.6c-0.3-1.8-0.6-3.7-0.8-5.5c1.4-0.1,2.7-0.3,4-0.5c12.2-2.2,22.3-9,27-18.3   c4-7.9,4-16.7,4-23.8c0-8.3-0.1-16.6-0.1-24.9c0-10.7-0.1-25.4-8.9-36.6c-3.7-4.6-8.5-8.2-14.4-10.6   C168.5,623.1,171.1,618.2,174.1,613.6z M160.5,642c2.9,1.2,5.9,3.1,8.2,6c5.2,6.5,5.7,16.2,5.7,27.3c0,8.3,0,16.6,0.1,24.9   c0,6,0,12.3-2.4,16.9c-2.6,5.1-8.7,9-16.3,10.4c-1,0.2-2.1,0.3-3.1,0.4C149.6,694.7,152.2,666.3,160.5,642z M647.3,211.2   c10.2-0.1,19.8-0.2,30.5-0.2c1.8,0,3.3,1.5,3.3,3.3l0,0.8c0,1.8-1.5,3.3-3.3,3.4c-10.9,0.2-21,0.2-31.7,0.3c-5.4,0-11,0.1-16.7,0.1   c0-2.6,0-5.1-0.1-7.5C635.5,211.3,641.5,211.3,647.3,211.2z M654.5,151.9c7.9-0.2,15.9-0.3,24.1-0.5c1.8,0,3.3,1.4,3.4,3.2l0,0.8   c0,1.2-0.5,2-0.9,2.4c-0.4,0.4-1.1,1-2.3,1.1c-10.7,0.4-21,0.5-31.8,0.7c-6.2,0.1-12.5,0.2-19.1,0.3c-0.1-2.4-0.2-4.9-0.3-7.5   C636.9,152.2,645.7,152.1,654.5,151.9z M601.7,125.7c3.1,0,6.3-0.1,9.4-0.2c2.9,49.4,3.3,71.2,3.4,126.1c-3,0-6,0-9,0   c-3,0-6.1,0-9.2,0l-3.3-121.9c0,0,0,0,0,0c0,0,0,0,0,0l-0.1-3.9C595.7,125.8,598.8,125.7,601.7,125.7z M481,215.3   c0.1-7.8,0.2-14.9,0.3-22c0.1-7,0.2-14,0.3-21.8c0.2-11.6,2.3-19.8,6.4-24.2c5.1-5.6,14.3-6.5,24.2-7.1c13.2-0.8,25.7-1.1,37.8-1.4   c9.1-0.2,18.4-0.4,28.1-0.9l2.7,100.9c-25.6,0-51.3,0.1-76.9,0.1c0,0,0,0,0,0c-7.9,0-14.7-2.3-18.4-6.3   C482.4,229.3,480.9,223.5,481,215.3z M497.8,737.1c-4.1,0-7.4-3.2-7.5-7.3c-1.1-49-2.2-125.5-2-177.4c0-4.1,3.4-7.5,7.5-7.5   c0,0,0,0,0,0c4.1,0,7.5,3.4,7.5,7.5c-0.2,51.8,0.9,128.1,2,177c0.1,4.1-3.2,7.6-7.3,7.7C497.9,737.1,497.9,737.1,497.8,737.1z"/>
</g>
<g class="st0" id="flat">
<g class="st2">
<path class="st10" d="M692.5,524.9c-102,1.5-268.3,3.3-370.3,4.8c-73.3,0.6-119.9,26.6-154.2,81c-29.8,47.3-25.3,104.7-19.8,139.9    c1.3,8.2,8.4,14.2,16.7,14c35.4-0.9,71.1-1.6,107-2.2l481.3-5.3c29.6-0.5,80.4-1.7,105.6-2.2c8.7-0.2,15.8-6.9,16.5-15.6    c4.7-57.7-2-123.5-34.1-159.6C808.6,543.2,783.4,524.9,692.5,524.9z"/>
<path class="st7" d="M282,719.9c-15,25.2-12.9,59.2,3.9,83.3c16.8,24.1,46.8,37.8,76.1,36.3c27.9-1.4,55.2-16.6,69.7-40.5    c14.6-23.9,15.4-55.9,0.6-79.7C403.2,672,310.5,671.9,282,719.9z"/>
<path class="st7" d="M580.6,726.5c-14,35.3,0,79.1,31,101.1c31,21.9,75.9,21.1,106.9-0.8c28.3-20,40.8-57.6,31.8-91.1    C730.6,661.5,608.6,655.7,580.6,726.5z"/>
<path class="st6" d="M820.2,629.4c10.2,8.6,24,12.2,37.4,12.4c2.4,0,4.8,0,11.9-2.2c-5.5-23.4-14.6-44.4-28.4-59.9    c-3.1-3.4-6-6.7-9-9.8c-16.4,8.7-22.2,15.4-24.5,23.6C804.1,606.4,810,620.8,820.2,629.4z"/>
<path class="st6" d="M373.1,789.4c11.5-5.5,18.9-18.3,18.1-31c-0.5-7.9-4.2-15.7-10.4-20.8c-16.8-13.9-43.2-9.8-51.4,11.5    c-4.6,11.9-1.2,26.3,8.2,34.9C347,792.6,361.7,794.9,373.1,789.4z"/>
<path class="st6" d="M642.3,783.2c7.1,6.2,16.9,9.2,26.3,8c13.7-1.8,25.7-13.1,28.2-26.7c5.2-28.6-27.1-54-52.2-36.3    c-9.5,6.7-14.9,18.5-14.3,30.1C630.7,767.8,635.1,777,642.3,783.2z"/>
<path class="st8" d="M181.7,675.9c0-11.2-0.4-23.2-7.3-32c-4.6-5.8-11.4-9.1-18.7-10.5c-9.9,10.8-16.1,74.5-9.9,102.8    c3.8,0.1,7.5-0.1,11.2-0.7c8.8-1.6,17.6-6.3,21.7-14.3c3.2-6.2,3.2-13.4,3.2-20.4C181.8,692.5,181.7,684.2,181.7,675.9z"/>
<path class="st11" d="M503.9,246.4c28.2,0,56.4-0.1,84.6-0.1c0.1,4.3,0.2,8.7,0.4,13c11.4-0.5,21.7,0,33-0.5    c0-64-0.4-84.5-3.8-141.1c-10.1,0.6-22.9,0.4-33,0.9c0.1,3.8,0.2,7.7,0.3,11.5c-25.6,1.4-47.8,1.1-73.7,2.6    c-10.5,0.6-22.2,1.8-29.3,9.5c-6.7,7.3-8.2,19.2-8.3,29.2c-0.2,15.6-0.4,28.2-0.7,43.8c-0.1,8,1.1,16.8,6.5,22.6    C485.8,244,495.4,246.4,503.9,246.4z"/>
<path class="st7" d="M815.4,635.1c13.5,11.4,30.4,14,42.2,14.2c0.5,0,1,0,1.5,0c3.8,0,7.6-0.2,11.7-0.6c4.1-0.4,7.1-4.1,6.7-8.2    c-0.4-4.1-4.1-7.1-8.2-6.7c-4,0.4-7.8,0.6-11.4,0.6c-13.2-0.2-24.8-4-32.7-10.6c-8.6-7.3-12.8-18.9-10.2-28.2    c2.2-7.9,9.4-15.1,19.3-19.1c3.8-1.6,5.7-6,4.1-9.8c-1.6-3.8-6-5.7-9.8-4.1c-14.3,5.9-24.5,16.4-28,28.9    C796.2,606.5,802.2,624,815.4,635.1z"/>
<path class="st7" d="M529.2,585.9l26.1-1.3c4.1-0.2,7.3-3.7,7.1-7.9c-0.2-4.1-3.7-7.3-7.9-7.1l-26.1,1.3c-4.1,0.2-7.3,3.7-7.1,7.9    c0.2,4,3.5,7.1,7.5,7.1C529,585.9,529.1,585.9,529.2,585.9z"/>
<path class="st7" d="M360.7,589.2c0.2,0,0.3,0,0.5,0l30.4-2.1c4.1-0.3,7.3-3.9,7-8c-0.3-4.1-3.9-7.3-8-7l-30.4,2.1    c-4.1,0.3-7.3,3.9-7,8C353.5,586.1,356.8,589.2,360.7,589.2z"/>
<path class="st7" d="M497.9,737c0,0,0.1,0,0.1,0c4.1-0.1,7.5-3.5,7.4-7.6c-0.4-25.7-0.9-78.2-1.6-138.9l-0.3-30.3    c0-4.1-3.4-7.5-7.6-7.4c-4.1,0-7.5,3.4-7.4,7.6l0.3,30.3c0.6,60.8,1.2,113.2,1.6,139C490.4,733.8,493.8,737,497.9,737z"/>
<path class="st7" d="M492.6,308.4c-50.8,1.2-97.3,13.2-128.2,33.4c-15.6,10.2-26.9,20.3-35.6,31.8c-16.1,21.4-26.6,48.7-29.3,76.7    c-2.5,25.5-2.6,51.5-0.2,79.4c0.3,3.9,3.6,6.9,7.5,6.9c0.2,0,0.4,0,0.6,0c4.1-0.3,7.2-4,6.8-8.1c-2.3-27-2.2-52.1,0.2-76.7    c2.5-25.4,11.9-49.9,26.4-69.2c7.6-10.1,17.7-19.1,31.8-28.3c27.2-17.8,67.9-28.6,113-30.7c0.8,40.4,1.7,125.1,2.6,203.8    c0,4.1,3.4,7.4,7.5,7.4c0,0,0.1,0,0.1,0c4.1,0,7.5-3.4,7.4-7.6c-0.9-78.8-1.8-163.6-2.6-204c6.8,0,13.6,0.2,20.5,0.5    c58.2,3.2,106.6,19.9,129.5,44.7c14.3,15.4,22.6,34.3,28,63.2c4.9,26.8,6.9,59.4,5.6,91.9c-0.2,4.1,3.1,7.6,7.2,7.8    c4.1,0.2,7.6-3.1,7.8-7.2c1.3-33.6-0.7-67.4-5.9-95.2c-3.9-21.2-11-48.4-31.7-70.6c-25.5-27.5-77.8-46-139.7-49.4    c-9.8-0.5-19.5-0.7-29.1-0.5c0,0-0.1,0-0.1,0C492.7,308.4,492.7,308.4,492.6,308.4z"/>
<path class="st7" d="M146.1,744.3C146.1,744.3,146.1,744.3,146.1,744.3C146.1,744.3,146.1,744.3,146.1,744.3    C146.2,744.3,146.2,744.3,146.1,744.3c0.1,0,0.2,0,0.2,0l0,0c0.7,0,1.4,0,2.1,0c3.7,0,7.2-0.3,10.4-0.9c12.2-2.2,22.3-9,27-18.3    c4-7.9,4-16.7,4-23.8c0-8.3-0.1-16.6-0.1-24.9c0-10.7-0.1-25.5-9-36.6c-5.4-6.8-13.4-11.4-23.2-13.2c-4.1-0.8-8,1.9-8.7,6    c-0.8,4.1,1.9,8,6,8.7c4.3,0.8,10.3,2.8,14.2,7.8c5.2,6.5,5.7,16.3,5.7,27.3c0,8.3,0,16.6,0.1,24.9c0,6,0,12.3-2.4,17    c-2.6,5.2-8.7,9-16.3,10.4c-2.9,0.5-6.1,0.7-9.6,0.6c0,0,0,0,0,0c0,0,0,0,0,0c-24.4-0.6-39.2-7.4-46.4-21.3    c-9-17.4-8.5-42.5-8.2-60.8c1-51,2-100.6,3.1-150.3c0.9-44.9,1.9-89.8,2.8-135.8c0.5-25.9,1.1-52.7,11-76.6    c16.4-39.5,48-62.5,102.3-74.3c38.8-8.5,196.1-14.9,262.4-12.3c4.1,0.2,7.6-3.1,7.8-7.2c0.2-4.1-3.1-7.6-7.2-7.8    c-68-2.7-225.4,3.7-266.2,12.6c-29.3,6.4-52.4,15.9-70.7,29.1c-19,13.7-32.9,31.4-42.3,54.2c-11,26.5-11.6,56-12.1,82    c-0.9,46.1-1.9,91-2.8,135.8C79,546.4,78,596,77,647c-0.4,19.9-0.9,47.2,9.8,68C96.7,734,116.1,743.6,146.1,744.3z"/>
<path class="st7" d="M581.4,259.7c0.2,4,3.5,7.1,7.5,7.1c0.1,0,0.2,0,0.4,0c4.1-0.2,7.3-3.7,7.1-7.9c-0.9-18.2-1.5-47.8-2.1-76.5    c-0.5-22.8-1-46.4-1.6-64.1c-0.1-4.1-3.6-7.4-7.8-7.2c-4.1,0.1-7.4,3.6-7.2,7.8c0.6,17.6,1.1,41.2,1.6,63.9    C579.9,211.5,580.5,241.3,581.4,259.7z"/>
<path class="st7" d="M619.7,152.5c0,0,0.1,0,0.1,0c12.3-0.2,23.6-0.4,34.8-0.6c7.9-0.2,15.7-0.3,24-0.5c1.8,0,3.3,1.4,3.4,3.2    l0,0.8c0,1.2-0.5,2-0.9,2.4c-0.4,0.4-1.1,1-2.3,1.1c-10.7,0.4-21,0.5-31.8,0.7c-8.5,0.1-17.3,0.3-26.4,0.5    c-4.1,0.1-7.4,3.6-7.3,7.7c0.1,4.1,3.4,7.3,7.5,7.3c0.1,0,0.1,0,0.2,0c9.1-0.2,17.8-0.4,26.3-0.5c10.9-0.2,21.2-0.3,32.1-0.7    c4.9-0.2,9.5-2.2,12.8-5.8c3.3-3.6,5.1-8.3,4.9-13.2l0-0.8c-0.4-9.9-8.7-17.9-18.7-17.6c-8.2,0.1-16.1,0.3-24,0.5    c-11.3,0.2-22.6,0.4-34.8,0.6c-4.1,0.1-7.4,3.5-7.4,7.6C612.3,149.3,615.6,152.5,619.7,152.5z"/>
<path class="st7" d="M677.8,218.4c-10.9,0.2-21,0.2-31.7,0.3c-7.8,0.1-15.7,0.1-24.3,0.2c-4.1,0-7.5,3.4-7.4,7.6    c0,4.1,3.4,7.4,7.5,7.4c0,0,0.1,0,0.1,0c8.5-0.1,16.4-0.2,24.2-0.2c10.7-0.1,20.9-0.2,31.8-0.3c10.1-0.2,18.2-8.5,18.1-18.6l0-0.7    c-0.1-10-8.3-18.1-18.3-18.1c-10.8,0-20.4,0.1-30.6,0.2c-8.1,0.1-16.4,0.2-25.5,0.2c-4.1,0-7.5,3.4-7.5,7.5c0,4.1,3.4,7.5,7.5,7.5    c0,0,0,0,0,0c9.1,0,17.5-0.1,25.6-0.2c10.2-0.1,19.8-0.2,30.5-0.2c1.8,0,3.3,1.5,3.3,3.3l0,0.7    C681.1,216.9,679.6,218.4,677.8,218.4z"/>
</g>
</g>
<g class="st0" id="colored_x5F_line">
<g class="st2">
<path class="st9" d="M503.9,246.4c28.2,0,56.4-0.1,84.6-0.1c0.1,4.3,0.2,8.7,0.4,13c11.4-0.5,21.7,0,33-0.5    c0-64-0.4-84.5-3.8-141.1c-10.1,0.6-22.9,0.4-33,0.9c0.1,3.8,0.2,7.7,0.3,11.5c-25.6,1.4-47.8,1.1-73.7,2.6    c-10.5,0.6-22.2,1.8-29.3,9.5c-6.7,7.3-8.2,19.2-8.3,29.2c-0.2,15.6-0.4,28.2-0.7,43.8c-0.1,8,1.1,16.8,6.5,22.6    C485.8,244,495.4,246.4,503.9,246.4z"/>
<path class="st9" d="M164.9,764.6c35.4-0.9,71.1-1.6,107-2.2l54.7-0.6c-0.2-4.3,0.4-8.7,1.9-12.7c8.2-21.3,35.5-26.3,52.4-12.5    c6.1,5.1,10.8,13.8,11.4,21.8c0.1,0.9,0.1,1.8,0,2.7c0,0,237-2.7,237-2.8c-0.6-11.6,5.8-24.4,15.3-31.1    c23.1-16.3,53.4,4.9,53.8,30.5l54.9-0.6c29.6-0.5,80.4-1.7,105.6-2.2c8.7-0.2,15.8-6.9,16.5-15.6c4.7-57.7-2-123.5-34.1-159.6    c-32.6-36.5-57.8-54.8-148.7-54.8c-102,1.5-268.3,3.3-370.3,4.8c-73.3,0.6-119.9,26.6-154.2,81c-29.8,47.3-25.3,104.7-19.8,139.9    C149.5,758.9,156.6,764.9,164.9,764.6z"/>
<path class="st5" d="M815.4,635.1c13.5,11.4,30.4,14,42.2,14.2c0.5,0,1,0,1.5,0c3.8,0,7.6-0.2,11.7-0.6c4.1-0.4,7.1-4.1,6.7-8.2    c-0.4-4.1-4.1-7.1-8.2-6.7c-4,0.4-7.8,0.6-11.4,0.6c-13.2-0.2-24.8-4-32.7-10.6c-8.6-7.3-12.8-18.9-10.2-28.2    c2.2-7.9,9.4-15.1,19.3-19.1c3.8-1.6,5.7-6,4.1-9.8c-1.6-3.8-6-5.7-9.8-4.1c-14.3,5.9-24.5,16.4-28,28.9    C796.2,606.5,802.2,624,815.4,635.1z"/>
<path class="st5" d="M529.2,585.9l26.1-1.3c4.1-0.2,7.3-3.7,7.1-7.9c-0.2-4.1-3.7-7.3-7.9-7.1l-26.1,1.3c-4.1,0.2-7.3,3.7-7.1,7.9    c0.2,4,3.5,7.1,7.5,7.1C529,585.9,529.1,585.9,529.2,585.9z"/>
<path class="st5" d="M360.7,589.2c0.2,0,0.3,0,0.5,0l30.4-2.1c4.1-0.3,7.3-3.9,7-8c-0.3-4.1-3.9-7.3-8-7l-30.4,2.1    c-4.1,0.3-7.3,3.9-7,8C353.5,586.1,356.8,589.2,360.7,589.2z"/>
<path class="st5" d="M497.9,737c0,0,0.1,0,0.1,0c4.1-0.1,7.5-3.5,7.4-7.6c-0.4-25.7-0.9-78.2-1.6-138.9l-0.3-30.3    c0-4.1-3.4-7.5-7.6-7.4c-4.1,0-7.5,3.4-7.4,7.6l0.3,30.3c0.6,60.8,1.2,113.2,1.6,139C490.4,733.8,493.8,737,497.9,737z"/>
<path class="st5" d="M492.6,308.4c-50.8,1.2-97.3,13.2-128.2,33.4c-15.6,10.2-26.9,20.3-35.6,31.8c-16.1,21.4-26.6,48.7-29.3,76.7    c-2.5,25.5-2.6,51.5-0.2,79.4c0.3,3.9,3.6,6.9,7.5,6.9c0.2,0,0.4,0,0.6,0c4.1-0.3,7.2-4,6.8-8.1c-2.3-27-2.2-52.1,0.2-76.7    c2.5-25.4,11.9-49.9,26.4-69.2c7.6-10.1,17.7-19.1,31.8-28.3c27.2-17.8,67.9-28.6,113-30.7c0.8,40.4,1.7,125.1,2.6,203.8    c0,4.1,3.4,7.4,7.5,7.4c0,0,0.1,0,0.1,0c4.1,0,7.5-3.4,7.4-7.6c-0.9-78.8-1.8-163.6-2.6-204c6.8,0,13.6,0.2,20.5,0.5    c58.2,3.2,106.6,19.9,129.5,44.7c14.3,15.4,22.6,34.3,28,63.2c4.9,26.8,6.9,59.4,5.6,91.9c-0.2,4.1,3.1,7.6,7.2,7.8    c4.1,0.2,7.6-3.1,7.8-7.2c1.3-33.6-0.7-67.4-5.9-95.2c-3.9-21.2-11-48.4-31.7-70.6c-25.5-27.5-77.8-46-139.7-49.4    c-9.8-0.5-19.5-0.7-29.1-0.5c0,0-0.1,0-0.1,0C492.7,308.4,492.7,308.4,492.6,308.4z"/>
<path class="st5" d="M146.1,744.3C146.1,744.3,146.1,744.3,146.1,744.3C146.1,744.3,146.1,744.3,146.1,744.3    C146.2,744.3,146.2,744.3,146.1,744.3c0.1,0,0.2,0,0.2,0l0,0c0.7,0,1.4,0,2.1,0c3.7,0,7.2-0.3,10.4-0.9c12.2-2.2,22.3-9,27-18.3    c4-7.9,4-16.7,4-23.8c0-8.3-0.1-16.6-0.1-24.9c0-10.7-0.1-25.5-9-36.6c-5.4-6.8-13.4-11.4-23.2-13.2c-4.1-0.8-8,1.9-8.7,6    c-0.8,4.1,1.9,8,6,8.7c4.3,0.8,10.3,2.8,14.2,7.8c5.2,6.5,5.7,16.3,5.7,27.3c0,8.3,0,16.6,0.1,24.9c0,6,0,12.3-2.4,17    c-2.6,5.2-8.7,9-16.3,10.4c-2.9,0.5-6.1,0.7-9.6,0.6c0,0,0,0,0,0c0,0,0,0,0,0c-24.4-0.6-39.2-7.4-46.4-21.3    c-9-17.4-8.5-42.5-8.2-60.8c1-51,2-100.6,3.1-150.3c0.9-44.9,1.9-89.8,2.8-135.8c0.5-25.9,1.1-52.7,11-76.6    c16.4-39.5,48-62.5,102.3-74.3c38.8-8.5,196.1-14.9,262.4-12.3c4.1,0.2,7.6-3.1,7.8-7.2c0.2-4.1-3.1-7.6-7.2-7.8    c-68-2.7-225.4,3.7-266.2,12.6c-29.3,6.4-52.4,15.9-70.7,29.1c-19,13.7-32.9,31.4-42.3,54.2c-11,26.5-11.6,56-12.1,82    c-0.9,46.1-1.9,91-2.8,135.8C79,546.4,78,596,77,647c-0.4,19.9-0.9,47.2,9.8,68C96.7,734,116.1,743.6,146.1,744.3z"/>
<path class="st5" d="M581.4,259.7c0.2,4,3.5,7.1,7.5,7.1c0.1,0,0.2,0,0.4,0c4.1-0.2,7.3-3.7,7.1-7.9c-0.9-18.2-1.5-47.8-2.1-76.5    c-0.5-22.8-1-46.4-1.6-64.1c-0.1-4.1-3.6-7.4-7.8-7.2c-4.1,0.1-7.4,3.6-7.2,7.8c0.6,17.6,1.1,41.2,1.6,63.9    C579.9,211.5,580.5,241.3,581.4,259.7z"/>
<path class="st5" d="M619.7,152.5c0,0,0.1,0,0.1,0c12.3-0.2,23.6-0.4,34.8-0.6c7.9-0.2,15.7-0.3,24-0.5c1.8,0,3.3,1.4,3.4,3.2    l0,0.8c0,1.2-0.5,2-0.9,2.4c-0.4,0.4-1.1,1-2.3,1.1c-10.7,0.4-21,0.5-31.8,0.7c-8.5,0.1-17.3,0.3-26.4,0.5    c-4.1,0.1-7.4,3.6-7.3,7.7c0.1,4.1,3.4,7.3,7.5,7.3c0.1,0,0.1,0,0.2,0c9.1-0.2,17.8-0.4,26.3-0.5c10.9-0.2,21.2-0.3,32.1-0.7    c4.9-0.2,9.5-2.2,12.8-5.8c3.3-3.6,5.1-8.3,4.9-13.2l0-0.8c-0.4-9.9-8.7-17.9-18.7-17.6c-8.2,0.1-16.1,0.3-24,0.5    c-11.3,0.2-22.6,0.4-34.8,0.6c-4.1,0.1-7.4,3.5-7.4,7.6C612.3,149.3,615.6,152.5,619.7,152.5z"/>
<path class="st5" d="M677.8,218.4c-10.9,0.2-21,0.2-31.7,0.3c-7.8,0.1-15.7,0.1-24.3,0.2c-4.1,0-7.5,3.4-7.4,7.6    c0,4.1,3.4,7.4,7.5,7.4c0,0,0.1,0,0.1,0c8.5-0.1,16.4-0.2,24.2-0.2c10.7-0.1,20.9-0.2,31.8-0.3c10.1-0.2,18.2-8.5,18.1-18.6l0-0.7    c-0.1-10-8.3-18.1-18.3-18.1c-10.8,0-20.4,0.1-30.6,0.2c-8.1,0.1-16.4,0.2-25.5,0.2c-4.1,0-7.5,3.4-7.5,7.5c0,4.1,3.4,7.5,7.5,7.5    c0,0,0,0,0,0c9.1,0,17.5-0.1,25.6-0.2c10.2-0.1,19.8-0.2,30.5-0.2c1.8,0,3.3,1.5,3.3,3.3l0,0.7    C681.1,216.9,679.6,218.4,677.8,218.4z"/>
<path class="st5" d="M282,719.9c-15,25.2-12.9,59.2,3.9,83.3c16.8,24.1,46.8,37.8,76.1,36.3c27.9-1.4,55.2-16.6,69.7-40.5    c14.6-23.9,15.4-55.9,0.6-79.7C403.2,672,310.5,671.9,282,719.9z M329.5,749.1c8.2-21.3,34.5-25.3,51.4-11.5    c6.1,5.1,9.8,12.8,10.4,20.8c0.9,12.7-6.6,25.5-18.1,31c-11.5,5.5-26.1,3.3-35.5-5.4C328.3,775.4,324.9,760.9,329.5,749.1z"/>
<path class="st5" d="M580.6,726.5c-14,35.3,0,79.1,31,101.1c31,21.9,75.9,21.1,106.9-0.8c28.3-20,40.8-57.6,31.8-91.1    C730.6,661.5,608.6,655.7,580.6,726.5z M696.8,764.5c-2.5,13.6-14.5,24.9-28.2,26.7c-9.4,1.2-19.2-1.9-26.3-8    c-7.1-6.2-11.5-15.4-12-24.8c-0.6-11.6,4.8-23.4,14.3-30.1C669.6,710.6,702,736,696.8,764.5z"/>
</g>
</g>
</svg>