<?xml version="1.0" ?>
<!-- Uploaded to: SVG Repo, www.svgrepo.com, Generator: SVG Repo Mixer Tools -->
<svg width="800px" height="800px" viewBox="0 0 960 960" version="1.1" xml:space="preserve" xmlns="http://www.w3.org/2000/svg" xmlns:xlink="http://www.w3.org/1999/xlink">
<style type="text/css">
	.st0{display:none;}
	.st1{display:inline;opacity:0.93;}
	.st2{display:inline;}
	.st3{fill:none;stroke:#000000;stroke-width:15;stroke-linecap:round;stroke-linejoin:round;stroke-miterlimit:10;}
	.st4{display:inline;fill:none;stroke:#000000;stroke-width:15;stroke-linecap:round;stroke-linejoin:round;stroke-miterlimit:10;}
	.st5{fill:#222222;}
	.st6{fill:#DDEDE7;}
	.st7{fill:#1A1D3F;}
	.st8{fill:#ED644E;}
	.st9{fill:#E9B44D;}
	.st10{fill:#3DC5A1;}
	.st11{fill:#494EDF;}
</style>
<g class="st0" id="guide"/>
<g class="st0" id="sketch"/>
<g class="st0" id="stroke">
<path class="st4" d="M243.1,678.5c-15.6,26.2-13.4,61.3,4,86.3c17.4,25,48.5,39.2,79,37.6c29-1.5,57.2-17.2,72.3-42   c15.1-24.8,15.9-58,0.7-82.7C368.8,628.9,272.7,628.8,243.1,678.5z"/>
<path class="st4" d="M552.7,685.4c-14.5,36.6,0,82.1,32.2,104.8c32.2,22.8,78.7,21.8,110.9-0.9c29.4-20.7,42.3-59.8,33-94.5   C708.3,618,581.8,611.9,552.7,685.4z"/>
<path class="st4" d="M292.3,708.8c-4.7,12.3-1.2,27.3,8.5,36.2c9.7,8.9,24.9,11.2,36.8,5.6c11.9-5.7,19.7-19,18.8-32.1   c-0.6-8.2-4.4-16.3-10.7-21.5C328.2,682.5,300.8,686.7,292.3,708.8z"/>
<path class="st4" d="M619,687.2c-9.8,6.9-15.5,19.2-14.8,31.2c0.5,9.8,5.1,19.3,12.5,25.7c7.4,6.4,17.6,9.6,27.3,8.3   c14.2-1.8,26.6-13.6,29.2-27.7C678.6,695.2,645,668.8,619,687.2z"/>
<path class="st4" d="M547.2,719.3c-45.7,0.4-91.4,0.7-137.1,1.2"/>
<path class="st4" d="M232.6,722.6c-37.2,0.6-74.2,1.4-110.9,2.3c-8.6,0.2-16-6-17.3-14.5c-5.6-36.5-10.3-96.1,20.5-145.1   c35.6-56.4,83.9-83.4,159.9-84c105.8-1.6,278.2-3.4,383.9-5c94.2,0,120.4,18.9,154.2,56.8c33.3,37.4,40.3,105.6,35.4,165.5   c-0.7,9-8.1,16-17.1,16.2c-26.1,0.6-78.8,1.8-109.5,2.3"/>
<path class="st4" d="M812.7,522.5c-11.2,4.6-21.3,13.3-24.5,24.9c-3.8,13.4,2.4,28.3,13,37.2c10.6,9,24.9,12.7,38.8,12.9   c4.3,0.1,8.5-0.2,12.8-0.6"/>
<path class="st4" d="M499.1,531.8c9-0.4,18.1-0.9,27.1-1.3"/>
<path class="st4" d="M324.7,535.2c10.5-0.7,21-1.4,31.5-2.2"/>
<path class="st4" d="M112.7,589.4c7.6,1.4,14.7,4.9,19.4,10.9c7.2,9.1,7.6,21.6,7.6,33.2c0,8.6,0.1,17.2,0.1,25.8   c0,7.2,0,14.7-3.3,21.1c-4.2,8.3-13.3,13.2-22.5,14.9c-3.8,0.7-7.7,0.9-11.6,0.7"/>
<path class="st4" d="M399.2,311.2c22.5-0.3,46.5,1,67.8-0.6c-13.5,30.1-28.2,72.1-46,117c-3.9,9.9,8.8,17.9,16,10   c50.9-55.8,85.9-96.7,142-163.5c5.3-6.3,0.7-15.9-7.5-15.8c-31.8,0.4-44.3,1.6-76.1-0.2c-1.5-0.1,10-63.6,18.6-109.5   c1.9-10.3-11.6-15.8-17.4-7.1c-29.9,44.7-78.3,116.4-105.4,154.4C386.7,302.5,391.4,311.3,399.2,311.2z"/>
<path class="st4" d="M616.3,293.7c23.7,17,42.8,54.7,48.5,85.5s5.2,65.8,4,97.1"/>
<path class="st4" d="M269.2,481.8c-2.3-27-2.4-54,0.2-81s10.6-54.1,26.9-75.7c12.9-17.1,30.4-30,49.9-39.3"/>
</g>
<g id="outline">
<path class="st5" d="M350.4,691.1c-10.9-9-25.3-12.3-38.6-8.8c-12.2,3.2-21.9,11.9-26.4,23.7c-5.8,15.1-1.6,33.4,10.4,44.4   c7.5,7,17.7,10.6,27.9,10.6c5.9,0,11.8-1.2,17.2-3.8c14.6-7,24.1-23.2,23-39.4C363.1,707.4,358.2,697.6,350.4,691.1z M334.3,743.8   c-9.1,4.3-21.1,2.5-28.5-4.3c-7.4-6.8-10.2-18.6-6.5-28c2.8-7.4,8.6-12.6,16.2-14.6c2.3-0.6,4.6-0.9,6.9-0.9   c6.5,0,13.1,2.3,18.4,6.7c4.6,3.8,7.6,9.9,8,16.3C349.5,729,343.4,739.4,334.3,743.8z M660,680.4c-14.6-9.3-31.5-9.1-45.3,0.7   c-11.7,8.3-18.8,23.1-18,37.7c0.6,12,6.1,23.3,15.1,31c7.7,6.7,17.9,10.4,28,10.4c1.7,0,3.4-0.1,5.1-0.3   c17.5-2.2,32.5-16.4,35.6-33.8C683.8,708.7,675.5,690.3,660,680.4z M665.8,723.4c-2,10.9-11.8,20.2-22.8,21.6   c-7.5,1-15.6-1.5-21.4-6.6c-5.8-5-9.5-12.7-9.9-20.5c-0.5-9.6,4.1-19.3,11.7-24.7c12.5-8.8,24.2-3.1,28.6-0.3   C660.6,698.5,668.2,710.1,665.8,723.4z M491.6,532.1c-0.2-4.1,3-7.7,7.1-7.9l27.1-1.3c4.1-0.2,7.7,3,7.9,7.1c0.2,4.1-3,7.7-7.1,7.9   l-27.1,1.3c-0.1,0-0.3,0-0.4,0C495.1,539.3,491.8,536.1,491.6,532.1z M317.3,535.7c-0.3-4.1,2.8-7.7,7-8l31.5-2.2   c4.1-0.3,7.7,2.8,8,7c0.3,4.1-2.8,7.7-7,8l-31.5,2.2c-0.2,0-0.3,0-0.5,0C320.8,542.7,317.5,539.6,317.3,535.7z M95.1,697.4   c0.5,4.6,1.2,9.4,1.9,14.2c1.9,12,12.2,20.8,24.3,20.8c0.2,0,0.4,0,0.6,0c32.8-0.8,66.9-1.6,104-2.2c1.9,13.7,6.9,27.2,15.1,38.9   c17.5,25.2,48.7,41,80.5,41c1.7,0,3.3,0,5-0.1c32.2-1.7,62.2-19.1,78.3-45.6c6.8-11.1,10.9-23.7,12.3-36.4   c23.1-0.2,46.3-0.4,69.4-0.6c17.9-0.1,35.9-0.3,53.8-0.4c0.7,6.1,2,12.3,3.9,18.4c6.5,20.9,19.4,39.1,36.4,51.1   c16.9,12,37.7,17.9,58.7,17.9c21.5,0,43.1-6.3,60.9-18.8c22.8-16.1,36.9-42.8,38.9-70.9c30.7-0.5,76.6-1.6,102.4-2.2   c12.9-0.3,23.4-10.2,24.4-23.1c2.7-33.4,1.5-65.6-3.4-93.1c-0.7-3.6-1.4-7.1-2.1-10.5c0-0.2-0.1-0.4-0.1-0.7   c-6.4-28.1-17-50.5-31.5-66.8c-18.1-20.3-34-34.8-57.1-44.6c-23-9.6-52.4-14.3-94.9-14.7c1-29.2,1-62-4.4-91   c-5.6-30.6-25.1-71.4-51.5-90.3c-3.4-2.4-8.1-1.6-10.5,1.7c-2.4,3.4-1.6,8.1,1.7,10.5c20.1,14.4,39.6,49.1,45.5,80.8   c5.1,27.8,5.1,59.8,4.1,88.3c-52,0.8-119.5,1.6-184.8,2.4c-68.4,0.8-139.1,1.7-191.9,2.5c-2.9,0-5.8,0.1-8.6,0.2   c-1.8-25.4-1.5-49.1,0.8-72.5c2.9-29.2,11.4-53.4,25.4-71.9c11.4-15.1,27.2-27.6,47.1-37c3.7-1.8,5.3-6.3,3.6-10   c-1.8-3.7-6.3-5.3-10-3.6c-22.1,10.5-39.8,24.5-52.6,41.6c-15.7,20.8-25.2,47.6-28.4,79.5c-2.4,24.1-2.6,48.7-0.8,74.8   c-64.2,5.6-108.8,32.8-142.6,86.4c-22.2,35.3-30,79.6-23.6,135.2C95,696.8,95,697.1,95.1,697.4z M392,756.5   c-13.6,22.3-39,37-66.3,38.4c-28.4,1.5-56.8-12-72.4-34.4c-15.9-22.9-17.5-55.1-3.7-78.2c12.2-20.5,39.2-33.4,70.5-33.7   c0.4,0,0.7,0,1.1,0c31.5,0,58.9,12.6,71.5,33.1C406.2,703.6,405.9,733.6,392,756.5z M691.5,783.2c-30,21.2-73,21.5-102.2,0.9   c-29.6-20.9-42.5-63.1-29.5-95.9c8.8-22.2,34.3-47.1,77.7-47.1c2.2,0,4.5,0.1,6.8,0.2c17.9,1,35.1,6.6,48.5,15.7   c14.5,9.8,24.4,23.6,28.7,39.8c1.8,6.7,2.7,13.5,2.7,20.3c0,0.1,0,0.2,0,0.2c0,0.1,0,0.1,0,0.2   C724.3,743.3,712.2,768.6,691.5,783.2z M811.3,531.5c2,2.1,4,4.3,6,6.6c12.6,14.1,20.8,32.4,26.1,51.9c-1.1,0-2.2,0-3.3,0   c-13.7-0.2-25.9-4.1-34.1-11.1c-9-7.6-13.4-19.7-10.6-29.5C797.4,542.4,803.2,535.9,811.3,531.5z M131.3,569.3   c17.4-27.6,37.7-47.4,62-60.3c25-13.3,54.9-19.9,91.7-20.2c52.9-0.8,123.6-1.7,191.9-2.5c68.4-0.8,139-1.7,191.9-2.5   c44.5,0,74.4,4.2,96.8,13.6c13.6,5.7,24.2,13.2,34.8,23.1c-9.7,6.2-16.6,15-19.4,24.9c-4.4,15.5,1.8,33.6,15.4,45   c13.9,11.8,31.4,14.4,43.5,14.6c0.5,0,1,0,1.6,0c1.8,0,3.6-0.1,5.4-0.1c7.1,36,5.6,73.2,4,93.1c-0.4,5.2-4.7,9.2-9.8,9.3   c-25.8,0.6-71.5,1.6-102.1,2.2c-0.5-5.6-1.4-11.1-2.9-16.6c-10.1-37.9-45.8-64-90.9-66.6c-20.8-1.2-41.6,3-58.7,12   c-19.1,10-33.2,25.3-40.7,44.4c-3.6,9.2-5.6,19.1-6,29.2c-17.8,0.2-35.6,0.3-53.3,0.4c-23,0.2-46,0.4-68.9,0.6   c-0.8-13.9-4.8-27.4-12-39.1c-15.5-25.1-48.3-40.5-85.5-40.2c-36.5,0.3-68.4,16-83.3,41c-7.3,12.3-11.1,26.3-11.5,40.6   c-37,0.6-70.9,1.3-103.6,2.2c-4.8,0.1-9-3.4-9.7-8.1c-0.3-2-0.6-4-0.9-6c1.5-0.1,3-0.3,4.4-0.6c12.5-2.2,22.9-9.3,27.8-18.8   c4.2-8.1,4.1-17.2,4.1-24.6c0-8.6-0.1-17.2-0.1-25.8c0-11.1-0.1-26.3-9.2-37.8c-3.8-4.8-8.9-8.6-15.1-11   C125.4,579.3,128.2,574.2,131.3,569.3z M117.3,598.5c3.2,1.3,6.4,3.3,8.9,6.4c5.5,6.9,5.9,17,6,28.6c0,8.6,0.1,17.2,0.1,25.7   c0,6.3,0,12.8-2.5,17.7c-2.8,5.4-9.2,9.5-17.1,10.9c-1.1,0.2-2.3,0.3-3.5,0.4C105.8,653.7,108.5,623.9,117.3,598.5z M399.3,318.7   c7.8-0.1,16,0,24,0.1c10.6,0.1,21.5,0.2,32.1-0.1c-7.2,17-14.7,36.9-22.6,57.7c-5.9,15.6-12.1,31.8-18.7,48.4   c-3.1,7.8-0.3,16.4,6.8,20.8c2.9,1.8,6,2.7,9.1,2.7c4.6,0,9.2-1.9,12.6-5.6c51-55.9,86.5-97.3,142.2-163.7   c4.4-5.2,5.3-12.2,2.4-18.3c-2.9-6.1-8.9-9.9-15.7-9.8c-8.4,0.1-15.5,0.3-21.8,0.4c-15.7,0.4-27.6,0.6-46.1-0.2   c1.5-10.2,5.7-36,17.9-101c1.5-8.1-2.8-15.9-10.4-19c-7.6-3.1-16.1-0.5-20.7,6.3c-27.5,41-77.7,115.6-105.2,154.3   c-3.8,5.3-4.2,12.1-1.2,17.8C386.9,315.3,392.8,318.8,399.3,318.7z M397.4,300.4c27.6-38.8,77.9-113.5,105.5-154.6   c0.2-0.4,1-1.4,2.5-0.8c1.6,0.7,1.4,1.9,1.3,2.3c-5.4,29.2-9.8,53.1-13,71.2c-7.1,40.6-6.8,41-4.2,44.2c1.3,1.7,3.4,2.8,5.5,2.9   c23.8,1.3,36.8,1,55,0.6c6.3-0.1,13.4-0.3,21.7-0.4c0,0,0,0,0,0c1.1,0,1.6,0.7,1.9,1.2c0.3,0.6,0.4,1.4-0.3,2.3   c-55.6,66.2-91,107.6-141.8,163.2c-0.3,0.3-1.2,1.3-2.7,0.4c-1.5-0.9-1-2.2-0.8-2.6c6.7-16.8,12.8-33,18.8-48.6   c9.6-25.4,18.8-49.4,27.1-68c1.1-2.4,0.8-5.2-0.7-7.4c-1.4-2-3.7-3.2-6.1-3.2c-0.2,0-0.4,0-0.5,0c-13.5,1-28.5,0.8-43.1,0.6   c-8-0.1-16.3-0.2-24.3-0.1h0c-1.1,0-1.6-0.6-1.9-1.1C397,302.1,396.8,301.3,397.4,300.4z M460.4,698.6c-4.1,0-7.4-3.2-7.5-7.3   c-1.1-49-2.2-132.5-2-184.4c0-4.1,3.4-7.5,7.5-7.5c0,0,0,0,0,0c4.1,0,7.5,3.4,7.5,7.5c-0.2,51.8,0.9,135.1,2,184   c0.1,4.1-3.2,7.6-7.3,7.7C460.5,698.6,460.5,698.6,460.4,698.6z"/>
</g>
<g class="st0" id="flat">
<g class="st2">
<path class="st8" d="M668.8,476.3c-105.8,1.6-278.2,3.4-383.9,5c-76,0.6-124.4,27.6-159.9,84c-30.9,49-26.2,108.6-20.5,145.1    c1.3,8.5,8.7,14.7,17.3,14.5c36.7-1,73.7-1.7,110.9-2.3l499.1-5.4c30.7-0.5,83.4-1.7,109.5-2.3c9-0.2,16.4-7.2,17.1-16.2    c4.9-59.8-2-128.1-35.4-165.5C789.2,495.2,763,476.3,668.8,476.3z"/>
<path class="st7" d="M326.1,802.4c29-1.5,57.2-17.2,72.3-42c15.1-24.8,15.9-58,0.7-82.7c-30.3-48.9-126.4-49-155.9,0.7    c-15.6,26.2-13.4,61.3,4,86.3C264.5,789.8,295.7,804,326.1,802.4z"/>
<path class="st7" d="M584.9,790.2c32.2,22.8,78.7,21.8,110.9-0.9c29.4-20.7,42.3-59.8,33-94.5c-20.5-76.9-147-82.9-176.1-9.4    C538.2,722,552.8,767.4,584.9,790.2z"/>
<path class="st6" d="M139.7,633.5c0-11.6-0.4-24.1-7.6-33.2c-4.7-6-11.8-9.5-19.4-10.9c-10.3,11.2-16.7,77.2-10.3,106.6    c3.9,0.1,7.8-0.1,11.6-0.7c9.2-1.6,18.2-6.6,22.5-14.9c3.3-6.4,3.3-13.9,3.3-21.1C139.8,650.7,139.7,642.1,139.7,633.5z"/>
<path class="st6" d="M345.6,696.9c-17.4-14.4-44.8-10.2-53.3,11.9c-4.7,12.3-1.2,27.3,8.5,36.2c9.7,8.9,24.9,11.2,36.8,5.6    c11.9-5.7,19.7-19,18.8-32.1C355.8,710.2,352,702.1,345.6,696.9z"/>
<path class="st6" d="M673.2,724.8c5.4-29.6-28.1-56-54.2-37.6c-9.8,6.9-15.5,19.2-14.8,31.2c0.5,9.8,5.1,19.3,12.5,25.7    s17.6,9.6,27.3,8.3C658.2,750.6,670.6,738.9,673.2,724.8z"/>
<path class="st9" d="M852.4,595.2c-5.7-24.3-15.2-46-29.5-62.1c-3.2-3.6-6.3-6.9-9.4-10.2c-17,9-23,15.9-25.4,24.4    c-3.8,13.4,2.4,28.3,13,37.2c10.6,9,24.9,12.7,38.8,12.9C842.5,597.6,845,597.5,852.4,595.2z"/>
<path class="st9" d="M571.6,258.4c-31.8,0.4-44.3,1.6-76.1-0.2c-1.5-0.1,10-63.6,18.6-109.5c1.9-10.3-11.6-15.8-17.4-7.1    c-29.9,44.7-78.3,116.4-105.4,154.4c-4.6,6.4,0.1,15.3,8,15.2c22.5-0.3,46.5,1,67.8-0.6c-13.5,30.1-28.2,72.1-46,117    c-3.9,9.9,8.8,17.9,16,10c50.9-55.8,85.9-96.7,142-163.5C584.4,267.9,579.8,258.3,571.6,258.4z"/>
<path class="st7" d="M796.4,590.4c13.9,11.8,31.4,14.4,43.5,14.6c0.5,0,1,0,1.6,0c3.9,0,7.9-0.2,12.1-0.7c4.1-0.4,7.1-4.1,6.7-8.2    c-0.4-4.1-4.1-7.1-8.2-6.7c-4.2,0.4-8.1,0.6-11.9,0.6c-13.7-0.2-25.9-4.1-34.1-11.1c-9-7.6-13.4-19.7-10.6-29.5    c2.3-8.3,9.9-15.8,20.1-20c3.8-1.6,5.7-6,4.1-9.8s-6-5.7-9.8-4.1c-14.7,6-25.3,16.9-28.9,29.8    C776.6,560.9,782.8,578.9,796.4,590.4z"/>
<path class="st7" d="M499.1,539.3c0.1,0,0.3,0,0.4,0l27.1-1.3c4.1-0.2,7.3-3.7,7.1-7.9c-0.2-4.1-3.7-7.3-7.9-7.1l-27.1,1.3    c-4.1,0.2-7.3,3.7-7.1,7.9C491.8,536.1,495.1,539.3,499.1,539.3z"/>
<path class="st7" d="M317.3,535.7c0.3,4,3.6,7,7.5,7c0.2,0,0.3,0,0.5,0l31.5-2.2c4.1-0.3,7.3-3.9,7-8c-0.3-4.1-3.9-7.3-8-7    l-31.5,2.2C320.1,528,317,531.6,317.3,535.7z"/>
<path class="st7" d="M102.2,703.6c0.8,0,1.6,0,2.4,0c3.8,0,7.4-0.3,10.8-0.9c12.5-2.2,22.9-9.3,27.8-18.8    c4.2-8.1,4.1-17.2,4.1-24.6c0-8.6-0.1-17.2-0.1-25.8c0-11.1-0.1-26.3-9.2-37.8c-5.6-7-13.8-11.7-23.9-13.6c-4.1-0.8-8,1.9-8.7,6    c-0.8,4.1,1.9,8,6,8.7c4.5,0.8,10.8,2.9,14.9,8.2c5.5,6.9,5.9,17,6,28.6c0,8.6,0.1,17.2,0.1,25.7c0,6.3,0,12.8-2.5,17.7    c-2.8,5.4-9.2,9.5-17.1,10.9c-3,0.5-6.3,0.7-10.1,0.6c-4.1-0.1-7.6,3.1-7.7,7.3C94.8,700,98.1,703.4,102.2,703.6z"/>
<path class="st7" d="M612,299.8c20.1,14.4,39.6,49.1,45.5,80.8c5.6,30.1,5.1,65.1,3.8,95.4c-0.2,4.1,3.1,7.6,7.2,7.8    c0.1,0,0.2,0,0.3,0c4,0,7.3-3.2,7.5-7.2c1.2-31.1,1.7-67.2-4.1-98.7c-5.6-30.6-25.1-71.4-51.5-90.3c-3.4-2.4-8.1-1.6-10.5,1.7    C607.8,292.7,608.6,297.4,612,299.8z"/>
<path class="st7" d="M269.2,489.3c0.2,0,0.4,0,0.6,0c4.1-0.3,7.2-4,6.8-8.1c-2.4-28.1-2.3-54.1,0.2-79.7    c2.9-29.2,11.4-53.4,25.4-71.9c11.4-15.1,27.2-27.6,47.1-37c3.7-1.8,5.3-6.3,3.6-10c-1.8-3.7-6.3-5.3-10-3.6    c-22.1,10.5-39.8,24.5-52.6,41.6c-15.7,20.8-25.2,47.6-28.4,79.5c-2.6,26.4-2.7,53.4-0.2,82.4    C262.1,486.4,265.3,489.3,269.2,489.3z"/>
<path class="st7" d="M460.4,701.6c0.1,0,0.1,0,0.2,0c4.1-0.1,7.4-3.5,7.3-7.7c-1.1-48.9-2.2-142.3-2-194c0-4.1-3.3-7.5-7.5-7.5    c0,0,0,0,0,0c-4.1,0-7.5,3.3-7.5,7.5c-0.2,51.9,0.9,145.4,2,194.4C453,698.3,456.3,701.6,460.4,701.6z"/>
</g>
</g>
<g class="st0" id="colored_x5F_line">
<g class="st2">
<path class="st9" d="M668.8,476.3c-105.8,1.6-278.2,3.4-383.9,5c-76,0.6-124.4,27.6-159.9,84c-30.9,49-26.2,108.6-20.5,145.1    c1.3,8.5,8.7,14.7,17.3,14.5c36.7-1,73.7-1.7,110.9-2.3l55.7-0.6c-0.2-4.5,0.4-9,2-13.2c8.5-22.1,37.8-28.3,55.3-13.9    c6.4,5.3,12.2,15.3,12.7,23.5c0.1,0.9,0.1,1.9,0,2.8l245.8-2.7c0-0.1-3-0.1-3-0.2c-0.6-12,8-27.3,17.8-34.2    c23.9-16.9,57.3,7.1,57.7,33.6l55-0.6c30.7-0.5,83.4-1.7,109.5-2.3c9-0.2,16.4-7.2,17.1-16.2c4.9-59.8-2-128.1-35.4-165.5    C789.2,495.2,763,476.3,668.8,476.3z"/>
<path class="st9" d="M399.2,311.2c22.5-0.3,46.5,1,67.8-0.6c-13.5,30.1-28.2,72.1-46,117c-3.9,9.9,8.8,17.9,16,10    c50.9-55.8,85.9-96.7,142-163.5c5.3-6.3,0.7-15.9-7.5-15.8c-31.8,0.4-44.3,1.6-76.1-0.2c-1.5-0.1,10-63.6,18.6-109.5    c1.9-10.3-11.6-15.8-17.4-7.1c-29.9,44.7-78.3,116.4-105.4,154.4C386.7,302.5,391.4,311.3,399.2,311.2z"/>
<path class="st5" d="M796.4,590.4c13.9,11.8,31.4,14.4,43.5,14.6c0.5,0,1,0,1.6,0c3.9,0,7.9-0.2,12.1-0.7c4.1-0.4,7.1-4.1,6.7-8.2    c-0.4-4.1-4.1-7.1-8.2-6.7c-4.2,0.4-8.1,0.6-11.9,0.6c-13.7-0.2-25.9-4.1-34.1-11.1c-9-7.6-13.4-19.7-10.6-29.5    c2.3-8.3,9.9-15.8,20.1-20c3.8-1.6,5.7-6,4.1-9.8s-6-5.7-9.8-4.1c-14.7,6-25.3,16.9-28.9,29.8    C776.6,560.9,782.8,578.9,796.4,590.4z"/>
<path class="st5" d="M499.1,539.3c0.1,0,0.3,0,0.4,0l27.1-1.3c4.1-0.2,7.3-3.7,7.1-7.9c-0.2-4.1-3.7-7.3-7.9-7.1l-27.1,1.3    c-4.1,0.2-7.3,3.7-7.1,7.9C491.8,536.1,495.1,539.3,499.1,539.3z"/>
<path class="st5" d="M317.3,535.7c0.3,4,3.6,7,7.5,7c0.2,0,0.3,0,0.5,0l31.5-2.2c4.1-0.3,7.3-3.9,7-8c-0.3-4.1-3.9-7.3-8-7    l-31.5,2.2C320.1,528,317,531.6,317.3,535.7z"/>
<path class="st5" d="M102.2,703.6c0.8,0,1.6,0,2.4,0c3.8,0,7.4-0.3,10.8-0.9c12.5-2.2,22.9-9.3,27.8-18.8    c4.2-8.1,4.1-17.2,4.1-24.6c0-8.6-0.1-17.2-0.1-25.8c0-11.1-0.1-26.3-9.2-37.8c-5.6-7-13.8-11.7-23.9-13.6c-4.1-0.8-8,1.9-8.7,6    c-0.8,4.1,1.9,8,6,8.7c4.5,0.8,10.8,2.9,14.9,8.2c5.5,6.9,5.9,17,6,28.6c0,8.6,0.1,17.2,0.1,25.7c0,6.3,0,12.8-2.5,17.7    c-2.8,5.4-9.2,9.5-17.1,10.9c-3,0.5-6.3,0.7-10.1,0.6c-4.1-0.1-7.6,3.1-7.7,7.3C94.8,700,98.1,703.4,102.2,703.6z"/>
<path class="st5" d="M612,299.8c20.1,14.4,39.6,49.1,45.5,80.8c5.6,30.1,5.1,65.1,3.8,95.4c-0.2,4.1,3.1,7.6,7.2,7.8    c0.1,0,0.2,0,0.3,0c4,0,7.3-3.2,7.5-7.2c1.2-31.1,1.7-67.2-4.1-98.7c-5.6-30.6-25.1-71.4-51.5-90.3c-3.4-2.4-8.1-1.6-10.5,1.7    C607.8,292.7,608.6,297.4,612,299.8z"/>
<path class="st5" d="M269.2,489.3c0.2,0,0.4,0,0.6,0c4.1-0.3,7.2-4,6.8-8.1c-2.4-28.1-2.3-54.1,0.2-79.7    c2.9-29.2,11.4-53.4,25.4-71.9c11.4-15.1,27.2-27.6,47.1-37c3.7-1.8,5.3-6.3,3.6-10c-1.8-3.7-6.3-5.3-10-3.6    c-22.1,10.5-39.8,24.5-52.6,41.6c-15.7,20.8-25.2,47.6-28.4,79.5c-2.6,26.4-2.7,53.4-0.2,82.4    C262.1,486.4,265.3,489.3,269.2,489.3z"/>
<path class="st5" d="M460.4,701.6c0.1,0,0.1,0,0.2,0c4.1-0.1,7.4-3.5,7.3-7.7c-1.1-48.9-2.2-142.3-2-194c0-4.1-3.3-7.5-7.5-7.5    c0,0,0,0,0,0c-4.1,0-7.5,3.3-7.5,7.5c-0.2,51.9,0.9,145.4,2,194.4C453,698.3,456.3,701.6,460.4,701.6z"/>
<path class="st5" d="M326.1,802.4c29-1.5,57.2-17.2,72.3-42c15.1-24.8,15.9-58,0.7-82.7c-30.3-48.9-126.4-49-155.9,0.7    c-15.6,26.2-13.4,61.3,4,86.3C264.5,789.8,295.7,804,326.1,802.4z M292.3,708.8c8.5-22.1,35.8-26.3,53.3-11.9    c6.4,5.3,10.2,13.3,10.7,21.5c0.9,13.1-6.9,26.4-18.8,32.1c-11.9,5.7-27.1,3.4-36.8-5.6C291.1,736.1,287.6,721.1,292.3,708.8z"/>
<path class="st5" d="M584.9,790.2c32.2,22.8,78.7,21.8,110.9-0.9c29.4-20.7,42.3-59.8,33-94.5c-20.5-76.9-147-82.9-176.1-9.4    C538.2,722,552.8,767.4,584.9,790.2z M619,687.2c26-18.4,59.6,8,54.2,37.6c-2.6,14.1-15,25.8-29.2,27.7    c-9.7,1.2-19.9-1.9-27.3-8.3s-12-16-12.5-25.7C603.6,706.4,609.2,694.1,619,687.2z"/>
</g>
</g>
</svg>